<?xml version="1.0"?>
<svg xmlns="http://www.w3.org/2000/svg" viewBox="0 0 512 512" width="512" height="512"><g id="Solid"><path d="M288,120a71.9,71.9,0,0,1,26.793-56H102a54.062,54.062,0,0,0-54,54V392H288ZM96,200a48.072,48.072,0,0,1,40.488-47.408,40,40,0,1,1,63.024,0A48.072,48.072,0,0,1,240,200v32a24.028,24.028,0,0,1-24,24H120a24.028,24.028,0,0,1-24-24ZM80,280H96v16H80Zm176,80H80V344H256Zm0-32H80V312H256Zm0-32H112V280H256Z"/><path d="M432,224V400a8,8,0,0,1-8,8H400v40a24,24,0,0,0,48,0V224Z"/><path d="M120,240h8V200h16v40h48V200h16v40h8a8.009,8.009,0,0,0,8-8V200a32.036,32.036,0,0,0-32-32H176v24H160V168H144a32.036,32.036,0,0,0-32,32v32A8.009,8.009,0,0,0,120,240Z"/><circle cx="168" cy="128" r="24"/><path d="M400,392h16V120a56,56,0,0,0-112,0v40h35.719l13.625-20.438A8,8,0,0,1,360,136h32a8,8,0,0,1,8,8Z"/><path d="M384,152H364.281l-13.625,20.438A8,8,0,0,1,344,176H304V400a8,8,0,0,1-8,8H136v40a24.028,24.028,0,0,0,24,24H392.022A39.788,39.788,0,0,1,384,448Z"/></g></svg>
